<svg xmlns="http://www.w3.org/2000/svg" viewBox="0 0 1440 320"><path fill="#0D2744" fill-opacity="1" d="M0,256L34.3,256C68.6,256,137,256,206,250.7C274.3,245,343,235,411,245.3C480,256,549,288,617,282.7C685.7,277,754,235,823,224C891.4,213,960,235,1029,256C1097.1,277,1166,299,1234,261.3C1302.9,224,1371,128,1406,80L1440,32L1440,320L1405.7,320C1371.4,320,1303,320,1234,320C1165.7,320,1097,320,1029,320C960,320,891,320,823,320C754.3,320,686,320,617,320C548.6,320,480,320,411,320C342.9,320,274,320,206,320C137.1,320,69,320,34,320L0,320Z"></path></svg>